<?xml version="1.0" encoding="utf-8"?>
<!-- Generator: Adobe Illustrator 24.1.2, SVG Export Plug-In . SVG Version: 6.00 Build 0)  -->
<svg version="1.1" id="Layer_1" xmlns="http://www.w3.org/2000/svg" xmlns:xlink="http://www.w3.org/1999/xlink" x="0px" y="0px"
	 viewBox="0 0 512 499.2" style="enable-background:new 0 0 512 499.2;" xml:space="preserve">
<style type="text/css">
	.st0{fill:#001E36;}
	.st1{fill:#31A8FF;}
</style>
<path class="st0" d="M90.66,0h330.67C471.41,0,512,40.59,512,90.66v317.88c0,50.07-40.59,90.66-90.66,90.66H90.66
	C40.59,499.2,0,458.61,0,408.54V90.66C0,40.59,40.59,0,90.66,0z"/>
<path class="st1" d="M115.29,350.07V130.59c0-1.59,0.68-2.4,2.06-2.4c3.65,0,7,0,12.01-0.17c5-0.17,10.47-0.23,16.32-0.34
	l18.55-0.35c6.52-0.11,12.99-0.17,19.4-0.17c17.4,0,32.07,2.17,44.02,6.52c10.74,3.64,20.53,9.62,28.67,17.52
	c6.9,6.85,12.23,15.11,15.63,24.22c3.21,8.87,4.83,18.24,4.79,27.67c0,18.33-4.24,33.44-12.71,45.34
	c-8.53,11.95-20.52,21-34.35,25.93c-14.43,5.38-30.46,7.2-48.09,7.2c-5,0-8.58-0.05-10.64-0.17s-5.15-0.17-9.27-0.17v68.52
	c0.22,1.49-0.81,2.87-2.3,3.09c-0.01,0-0.02,0-0.02,0c-0.26,0.04-0.52,0.04-0.77,0h-40.89C116.05,352.81,115.29,351.9,115.29,350.07
	z M161.68,169.41v71.58c2.97,0.23,5.72,0.35,8.24,0.34h11.34c8.34-0.03,16.63-1.35,24.56-3.92c6.8-2.01,12.88-5.94,17.52-11.31
	c4.46-5.26,6.69-12.6,6.69-22.01c0.17-6.65-1.56-13.2-5-18.89c-3.6-5.5-8.82-9.76-14.93-12.2c-7.97-3.09-16.47-4.55-25.01-4.29
	c-5.5,0-10.37,0.06-14.6,0.17c-4.23,0.11-7.15,0.29-8.76,0.52H161.68z"/>
<path class="st1" d="M409.54,227.98c-6.45-3.32-13.33-5.75-20.44-7.21c-7.83-1.8-15.84-2.72-23.87-2.75
	c-4.34-0.12-8.68,0.41-12.88,1.55c-2.67,0.59-5.05,2.11-6.7,4.29c-1.12,1.74-1.71,3.77-1.71,5.84c0.06,2.01,0.79,3.94,2.06,5.49
	c2,2.35,4.46,4.27,7.21,5.66c4.89,2.63,9.94,4.97,15.11,7c11.53,3.86,22.54,9.11,32.81,15.63c6.98,4.42,12.77,10.49,16.83,17.69
	c3.42,6.82,5.14,14.38,5,22.01c0.2,10.07-2.67,19.96-8.24,28.34c-5.97,8.51-14.25,15.12-23.87,19.06
	c-10.44,4.59-23.34,6.88-38.68,6.88c-9.74,0.09-19.46-0.83-29.01-2.75c-7.53-1.38-14.85-3.69-21.81-6.87
	c-1.54-0.79-2.48-2.4-2.41-4.12v-37.09c-0.09-0.74,0.24-1.47,0.86-1.89c0.6-0.34,1.36-0.28,1.89,0.17
	c8.22,4.85,17.16,8.38,26.47,10.47c8.21,2.06,16.62,3.15,25.08,3.26c8,0,13.9-1.03,17.69-3.09c3.48-1.6,5.7-5.09,5.66-8.92
	c0-2.98-1.72-5.85-5.15-8.59s-10.42-6.05-20.97-9.9c-10.78-3.75-21.01-8.95-30.39-15.46c-6.71-4.66-12.24-10.83-16.15-18.01
	c-3.39-6.77-5.1-14.24-5-21.81c-0.03-9.11,2.47-18.06,7.22-25.83c5.4-8.54,13.15-15.34,22.33-19.58
	c10.07-5.04,22.66-7.55,37.78-7.55c8.85-0.07,17.7,0.55,26.45,1.88c6.34,0.81,12.53,2.5,18.41,5c0.95,0.27,1.71,0.97,2.06,1.89
	c0.23,0.84,0.35,1.7,0.34,2.57v34.7c0.06,0.82-0.32,1.6-1,2.06C411.57,228.46,410.47,228.45,409.54,227.98z"/>
</svg>
