<?xml version="1.0" encoding="utf-8"?>
<!-- Generator: Adobe Illustrator 24.1.2, SVG Export Plug-In . SVG Version: 6.00 Build 0)  -->
<svg version="1.1" id="Layer_1" xmlns="http://www.w3.org/2000/svg" xmlns:xlink="http://www.w3.org/1999/xlink" x="0px" y="0px"
	 viewBox="0 0 512 499.2" style="enable-background:new 0 0 512 499.2;" xml:space="preserve">
<style type="text/css">
	.st0{fill:#330000;}
	.st1{fill:#FF9A00;}
</style>
<path class="st0" d="M90.67,0h330.66C471.41,0,512,40.59,512,90.67v317.86c0,50.07-40.59,90.67-90.67,90.67H90.67
	C40.59,499.2,0,458.6,0,408.53V90.67C0,40.59,40.59,0,90.67,0z"/>
<path class="st1" d="M248.11,299.58h-79.35l-16.14,50.14c-0.44,1.9-2.18,3.2-4.12,3.09h-40.18c-2.3,0-3.1-1.26-2.4-3.78
	l68.69-197.87c0.67-2.06,1.35-4.4,2.06-7.01c0.89-4.59,1.35-9.24,1.37-13.91c-0.17-1.15,0.63-2.23,1.78-2.4c0.01,0,0.01,0,0.02,0
	c0.2-0.03,0.4-0.03,0.6,0h54.61c1.6,0,2.51,0.57,2.75,1.71l77.96,219.83c0.69,2.28,0,3.43-2.06,3.43h-44.65
	c-1.59,0.18-3.06-0.85-3.43-2.4L248.11,299.58z M181.13,256.27h54.26c-1.37-4.58-2.97-9.74-4.81-15.46
	c-1.84-5.72-3.78-11.85-5.84-18.38l-6.19-19.57c-2.06-6.53-3.95-12.83-5.67-18.9c-1.72-6.07-3.27-11.61-4.68-16.62h-0.34
	c-1.93,9.27-4.34,18.44-7.22,27.47c-3.2,10.31-6.47,20.85-9.79,31.6C187.55,237.18,184.3,247.13,181.13,256.27z"/>
<path class="st1" d="M362.13,164.26c-7.09,0.28-13.96-2.47-18.89-7.56c-4.91-5.31-7.51-12.35-7.21-19.58
	c-0.24-7.15,2.57-14.06,7.73-19.02c5.1-4.9,11.95-7.56,19.02-7.39c8.24,0,14.71,2.46,19.4,7.39c4.76,5.16,7.28,12,7.01,19.02
	c0.29,7.26-2.37,14.32-7.39,19.58C376.58,161.84,369.45,164.58,362.13,164.26z M338.43,349.37V185.2c0-2.06,0.91-3.09,2.74-3.09
	h42.24c1.82,0,2.74,1,2.74,3.09v164.18c0,2.28-0.91,3.43-2.74,3.43h-41.88C339.46,352.82,338.43,351.67,338.43,349.37z"/>
</svg>
